<?xml version="1.0" standalone="no"?>
<!DOCTYPE svg PUBLIC "-//W3C//DTD SVG 20010904//EN"
 "http://www.w3.org/TR/2001/REC-SVG-20010904/DTD/svg10.dtd">
<svg version="1.0" xmlns="http://www.w3.org/2000/svg"
 width="4800.000000pt" height="3547.000000pt" viewBox="0 0 4800.000000 3547.000000"
 preserveAspectRatio="xMidYMid meet">

<g transform="translate(0.000000,3547.000000) scale(0.100000,-0.100000)"
fill="#000000" stroke="none">
<path d="M23840 35144 c-857 -20 -1055 -26 -1235 -34 -1123 -53 -2197 -210
-3280 -481 -233 -58 -557 -146 -700 -190 -361 -111 -424 -131 -700 -226 -1755
-602 -3450 -1536 -4900 -2698 -599 -480 -879 -737 -1692 -1550 -690 -691 -893
-908 -1259 -1345 -1565 -1869 -2675 -4041 -3263 -6385 -36 -143 -68 -282 -91
-385 -69 -315 -93 -437 -141 -704 -60 -339 -120 -772 -154 -1106 -8 -85 -18
-175 -20 -200 -8 -73 -24 -289 -41 -545 -12 -177 -17 -477 -21 -1142 l-5 -903
-3048 0 c-2939 0 -3047 -1 -3063 -18 -16 -17 -17 -454 -17 -6084 0 -5863 1
-6065 18 -6081 17 -16 436 -17 5813 -17 l5794 -1 120 -116 c799 -775 1874
-1592 2910 -2211 454 -271 1140 -631 1560 -820 50 -22 115 -51 145 -65 214
-98 647 -276 910 -375 1293 -487 2658 -817 3990 -966 481 -53 697 -70 1148
-90 899 -40 1613 -49 2157 -28 879 35 934 38 1295 68 404 34 697 68 1145 135
844 125 1885 377 2740 663 552 186 1123 410 1600 629 72 32 159 73 195 89 113
52 672 333 801 403 1249 681 2309 1434 3314 2355 33 30 123 117 200 192 l141
138 5781 0 c5177 0 5782 2 5793 15 10 13 13 1190 11 6083 -2 5523 -4 6069 -18
6084 -15 17 -171 18 -3040 18 l-3023 0 0 663 c0 978 -23 1511 -91 2152 -241
2261 -959 4429 -2121 6400 -617 1047 -1388 2064 -2229 2940 -176 185 -905 914
-1119 1121 -957 924 -2057 1747 -3235 2419 -346 197 -410 231 -826 439 -1005
502 -1947 860 -3089 1174 -118 32 -461 117 -610 151 -1157 260 -2217 389
-3465 421 -488 12 -922 18 -1085 14z m620 -114 c933 -29 1018 -33 1455 -66
602 -45 1265 -135 1855 -249 102 -20 205 -40 230 -45 206 -40 768 -176 1050
-254 418 -115 946 -284 1245 -396 28 -10 113 -42 190 -70 783 -289 1742 -745
2521 -1201 1078 -630 2114 -1408 3014 -2263 237 -226 1169 -1165 1339 -1351
1357 -1479 2400 -3137 3127 -4973 570 -1441 918 -2926 1054 -4507 39 -444 42
-563 47 -1525 3 -641 8 -969 15 -977 8 -10 569 -13 2743 -13 1502 0 2867 -3
3033 -7 l302 -6 0 -5984 0 -5983 -5764 0 -5763 0 -69 -68 c-448 -440 -1091
-981 -1669 -1404 -1833 -1339 -3921 -2286 -6136 -2783 -280 -62 -442 -95 -774
-154 -378 -69 -932 -144 -1290 -176 -38 -4 -79 -8 -91 -10 -11 -2 -72 -6 -135
-10 -63 -4 -124 -8 -137 -10 -12 -2 -75 -6 -140 -10 -64 -3 -139 -8 -167 -10
-56 -5 -240 -12 -505 -20 -96 -3 -229 -8 -295 -10 -572 -22 -663 -22 -1380 0
-88 2 -250 7 -360 10 -302 8 -716 29 -810 40 -16 2 -77 6 -135 10 -58 3 -141
10 -185 15 -44 5 -129 14 -190 20 -333 33 -820 102 -1150 161 -1020 184 -1948
435 -2890 782 -167 62 -460 176 -545 212 -30 13 -100 43 -155 65 -118 50 -105
44 -365 160 -210 94 -739 353 -935 457 -1039 553 -1980 1187 -2875 1938 -285
239 -500 431 -772 692 l-107 103 -5785 0 -5786 0 0 5990 0 5990 3054 0 c2431
0 3056 3 3064 13 6 8 12 329 15 907 6 867 12 1066 46 1510 126 1601 486 3149
1083 4645 86 217 92 230 199 475 154 354 407 877 541 1120 14 25 44 81 68 125
82 152 308 543 412 711 568 920 1196 1746 1942 2550 126 137 1211 1223 1351
1354 175 163 205 190 340 311 1248 1111 2716 2053 4260 2734 607 267 1094 450
1795 673 299 95 913 261 1215 327 257 57 305 67 445 95 669 134 1341 226 1990
274 440 33 497 35 1600 65 157 4 310 9 340 10 30 0 201 -3 380 -9z"/>
<path d="M24039 34226 c-2 -2 -143 -7 -314 -10 -1192 -24 -2100 -116 -3122
-317 -401 -79 -1051 -235 -1343 -322 -63 -19 -142 -42 -175 -52 -335 -93 -948
-306 -1410 -488 -877 -348 -1783 -803 -2585 -1300 -919 -570 -1776 -1224
-2560 -1956 -193 -180 -792 -778 -955 -953 -1384 -1487 -2447 -3154 -3185
-4998 -459 -1147 -767 -2276 -960 -3525 -5 -33 -12 -76 -14 -95 -23 -142 -72
-565 -96 -810 -78 -823 -92 -1951 -35 -2829 8 -124 15 -229 15 -233 0 -4
-1391 -8 -3090 -8 l-3090 0 2 -5182 3 -5183 5587 -3 5588 -2 137 -131 c736
-703 1588 -1368 2473 -1932 504 -321 923 -558 1470 -831 402 -200 555 -272
891 -416 1541 -662 3204 -1091 4879 -1259 950 -96 2000 -117 2975 -61 655 38
1269 106 1855 206 80 14 172 30 205 35 375 62 1057 219 1540 355 596 168 1316
415 1795 616 52 22 133 56 180 75 390 164 1002 457 1380 660 1115 602 2124
1303 3070 2132 163 143 212 188 360 327 41 39 87 81 102 95 14 13 45 47 67 74
l41 50 5578 5 5577 5 3 5183 2 5182 -3067 0 -3066 0 7 123 c29 541 36 764 36
1302 0 524 -13 1010 -35 1275 -3 36 -12 151 -20 255 -16 202 -23 268 -55 545
-84 714 -230 1471 -421 2190 -54 203 -56 209 -129 454 -441 1479 -1111 2913
-1965 4205 -698 1057 -1465 1966 -2480 2942 -1185 1139 -2561 2109 -4035 2843
-1170 582 -2352 1010 -3625 1310 -104 24 -224 52 -265 60 -41 9 -106 23 -145
31 -200 43 -713 134 -955 169 -711 103 -1429 164 -2155 181 -143 3 -306 8
-361 10 -56 2 -103 3 -105 1z m-20586 -18656 c122 -22 389 -69 592 -105 204
-37 480 -86 615 -110 135 -24 326 -58 425 -75 174 -29 181 -31 208 -62 34 -41
35 72 -3 -1003 -6 -159 -17 -497 -25 -750 -8 -253 -19 -588 -25 -745 -17 -489
-30 -854 -40 -1165 -6 -165 -15 -426 -20 -580 -5 -154 -17 -494 -25 -755 -16
-508 -29 -826 -45 -1115 -5 -99 -15 -272 -20 -385 -6 -113 -15 -245 -19 -295
-37 -384 -147 -765 -286 -986 -64 -100 -94 -134 -223 -244 -153 -131 -456
-274 -667 -316 -135 -26 -208 -31 -440 -30 -423 3 -421 3 -1065 76 -272 32
-474 56 -477 59 -3 2 -17 183 -38 461 -33 463 -95 1252 -99 1283 -5 32 -4 33
22 28 15 -3 79 -15 142 -26 63 -12 158 -30 210 -40 89 -17 134 -24 220 -35 45
-6 389 -7 415 -1 11 2 49 7 85 10 114 12 202 43 257 91 55 48 81 95 116 205
55 171 80 381 92 775 7 212 -9 1199 -25 1595 -9 231 -20 518 -40 1035 -24 623
-41 1060 -50 1262 -5 120 -14 325 -20 456 -5 130 -15 344 -20 475 -6 130 -15
334 -20 452 -5 118 -13 296 -16 396 l-7 181 44 10 c24 6 46 11 47 12 2 0 103
-17 225 -39z m27585 -135 c326 -41 526 -94 852 -225 341 -136 625 -291 840
-457 100 -77 313 -278 376 -353 16 -20 54 -65 85 -100 83 -96 248 -332 303
-435 27 -49 61 -113 77 -141 55 -100 158 -355 207 -510 96 -304 129 -528 139
-929 18 -747 -108 -1421 -349 -1865 -247 -454 -763 -1042 -1072 -1222 -39 -23
-84 -53 -101 -68 -16 -15 -43 -36 -60 -47 -41 -28 -437 -211 -505 -233 -400
-132 -577 -201 -596 -232 -8 -13 -6 -541 5 -1328 4 -278 7 -506 6 -508 -3 -4
-76 -11 -185 -17 -58 -3 -139 -8 -180 -10 -81 -5 -305 -12 -635 -20 -115 -3
-268 -7 -340 -10 -71 -2 -220 -7 -329 -11 l-199 -7 6 104 c4 57 12 183 17 279
5 96 14 252 20 345 6 94 17 294 25 445 8 151 19 352 25 445 16 283 30 511 40
695 5 96 14 252 20 345 5 94 14 251 20 350 18 325 40 1644 40 2450 0 826 -18
1564 -60 2400 -5 110 -14 295 -20 410 -5 116 -13 254 -16 308 -4 54 -3 98 2
98 32 5 76 8 209 14 83 4 157 9 165 10 9 2 76 6 150 10 74 4 146 8 159 10 13
3 85 7 160 11 75 4 138 8 139 10 13 11 452 2 560 -11z m-11513 -889 c154 -108
436 -306 627 -439 327 -228 347 -245 365 -287 10 -25 19 -48 21 -51 2 -4 -75
-62 -170 -130 -376 -268 -614 -521 -771 -819 -63 -119 -68 -133 -88 -255 -16
-101 -20 -154 -15 -235 12 -239 60 -327 669 -1252 176 -267 281 -440 311 -511
33 -81 50 -207 50 -387 1 -160 -1 -184 -27 -285 -50 -195 -167 -476 -272 -653
-160 -271 -706 -1047 -961 -1369 -121 -151 -230 -273 -247 -273 -5 0 -62 19
-126 42 -121 44 -208 97 -576 351 -103 72 -147 97 -170 97 l-32 0 8 -57 c13
-89 59 -478 59 -493 0 -11 -54 -12 -307 -7 -170 4 -497 10 -728 13 -231 4
-421 7 -422 8 0 0 -10 93 -22 206 -11 113 -30 295 -41 405 -11 110 -29 290
-40 400 -26 258 -57 479 -74 519 l-13 32 -214 27 c-118 15 -266 30 -329 33
-63 3 -125 7 -136 9 -12 2 -163 6 -335 10 -173 4 -327 8 -344 9 l-30 1 -37
-150 c-34 -137 -51 -226 -93 -492 -8 -51 -22 -135 -30 -185 -8 -51 -26 -164
-40 -250 -29 -185 -59 -322 -81 -378 l-16 -40 -683 0 c-643 0 -684 1 -689 18
-2 9 -7 43 -11 75 -3 31 -11 57 -17 57 -6 0 -124 -34 -262 -75 -280 -83 -396
-112 -474 -117 l-52 -3 -125 275 c-69 151 -135 295 -147 320 -11 25 -32 70
-45 100 -21 44 -347 759 -488 1067 l-33 72 -74 -20 c-40 -11 -93 -31 -118 -44
l-45 -23 -7 -428 c-3 -236 -10 -619 -13 -851 l-7 -423 -632 0 c-548 0 -694 5
-711 22 -2 2 0 613 5 1358 5 745 14 2086 19 2980 6 894 13 1852 17 2129 l6
503 182 -6 c99 -4 206 -9 236 -11 30 -2 165 -7 300 -10 135 -3 270 -8 300 -10
30 -3 134 -7 230 -10 417 -13 586 -22 769 -41 223 -24 303 -60 512 -236 190
-160 507 -536 790 -941 63 -90 208 -343 261 -455 125 -266 145 -400 113 -757
-12 -138 -52 -356 -84 -460 -24 -78 -126 -312 -158 -363 -218 -342 -352 -523
-518 -698 l-136 -144 31 -162 c84 -443 324 -1210 473 -1508 34 -68 46 -85 65
-86 16 0 27 7 33 20 4 12 51 208 104 436 53 228 107 462 121 520 13 58 33 143
44 190 11 47 33 141 49 210 17 69 69 292 116 495 47 204 117 503 155 665 38
162 130 603 205 980 141 707 161 815 270 1400 83 450 78 422 131 649 25 108
57 222 71 254 l26 59 246 -6 c135 -3 350 -8 476 -11 127 -3 300 -8 385 -10 85
-3 301 -7 480 -11 324 -6 460 -10 465 -16 1 -2 41 -237 89 -523 84 -508 156
-934 526 -3140 100 -594 219 -1309 266 -1590 47 -280 88 -518 92 -527 6 -16
20 -11 116 37 127 63 219 137 426 345 113 112 142 148 177 215 105 203 203
560 203 739 0 30 -5 79 -11 108 -18 81 -133 303 -329 628 -97 162 -241 403
-320 535 -331 554 -432 851 -416 1224 7 170 23 256 79 411 33 93 149 304 232
425 23 33 93 134 156 225 120 174 369 499 514 672 99 117 170 184 304 287 87
66 95 70 115 58 12 -8 147 -103 301 -211z m-13045 189 c473 -6 649 -11 656
-18 3 -2 13 -35 23 -73 17 -61 21 -132 30 -599 6 -291 16 -746 21 -1010 14
-657 15 -1020 1 -1350 -7 -154 -19 -437 -27 -630 -8 -192 -21 -471 -29 -620
-8 -148 -19 -362 -25 -475 -5 -113 -12 -230 -16 -260 l-5 -55 48 -46 48 -47
330 -70 c344 -74 517 -97 670 -90 l80 3 21 65 c23 71 19 13 74 1345 5 138 15
367 21 510 9 187 10 702 5 1824 l-7 1564 233 -7 c128 -4 285 -9 348 -11 63 -2
228 -7 365 -10 323 -7 619 -17 623 -20 2 -2 -1 -131 -7 -286 -6 -156 -18 -477
-26 -714 -8 -236 -20 -549 -25 -695 -5 -146 -14 -391 -20 -545 -6 -154 -15
-399 -20 -545 -5 -146 -14 -391 -20 -545 -6 -154 -15 -397 -20 -540 -5 -143
-17 -456 -25 -695 -8 -239 -20 -554 -25 -700 -14 -375 -29 -780 -40 -1105 -5
-154 -12 -321 -16 -372 l-6 -91 -61 -11 c-34 -6 -118 -20 -187 -31 -69 -11
-237 -38 -375 -60 -330 -54 -455 -70 -601 -77 l-121 -5 -7 158 c-3 88 -9 180
-12 205 l-6 46 -62 -11 c-53 -10 -98 -35 -331 -181 -260 -163 -273 -170 -345
-181 l-74 -12 -96 45 c-52 24 -237 110 -410 191 -331 153 -532 265 -775 431
-270 184 -350 267 -414 428 -28 72 -39 445 -51 1683 -12 1158 -24 1822 -39
2060 -5 85 -15 252 -21 370 -16 318 -39 689 -50 825 -45 532 -64 890 -54 993
l6 63 197 -5 c108 -3 401 -8 651 -11z m15446 -58 c60 -35 129 -76 153 -91 51
-33 427 -317 801 -605 146 -112 280 -210 299 -218 l33 -14 -5 53 c-7 61 -10
96 -37 433 -11 138 -22 274 -25 304 l-5 53 142 -6 c79 -3 244 -8 368 -11 124
-3 272 -8 330 -10 58 -2 218 -7 355 -10 264 -6 395 -12 400 -17 3 -3 -2 -130
-25 -573 -5 -110 -14 -293 -20 -407 -5 -115 -15 -301 -20 -415 -6 -115 -17
-347 -25 -518 -8 -170 -20 -409 -27 -530 -15 -258 -15 -2356 -1 -3650 5 -440
9 -801 9 -801 -2 -4 -476 -14 -960 -20 l-549 -7 7 79 c3 43 13 189 21 324 8
135 24 387 35 560 11 173 24 389 30 480 6 91 15 230 20 310 25 381 29 568 34
1415 6 980 -7 2358 -24 2650 -10 167 -23 255 -37 255 -3 0 -80 -39 -172 -87
-133 -70 -291 -169 -321 -202 -3 -3 -41 -40 -85 -81 -99 -94 -214 -228 -336
-392 -165 -222 -177 -250 -204 -463 -18 -141 -19 -244 -4 -334 14 -86 100
-255 255 -506 600 -969 638 -1037 685 -1221 32 -127 35 -187 18 -346 -28 -266
-140 -563 -330 -876 -140 -230 -141 -231 -248 -377 -214 -292 -295 -400 -456
-600 -326 -407 -542 -643 -574 -626 -9 5 -41 20 -71 34 -207 94 -237 112 -472
284 -630 460 -785 578 -797 607 -6 16 -10 31 -8 32 1 1 108 70 237 155 246
160 302 201 567 411 206 164 262 233 369 447 85 171 116 269 140 436 18 126
12 305 -12 395 -19 67 -104 230 -282 540 -198 345 -433 763 -528 940 -69 130
-89 178 -119 287 -47 177 -62 347 -47 542 19 232 68 382 197 603 140 237 547
773 804 1058 123 136 381 390 396 390 7 0 61 -28 121 -63z m5534 -585 c328
-328 503 -510 513 -533 28 -67 28 -73 4 -84 -12 -6 -76 -39 -142 -74 -420
-223 -511 -281 -651 -418 -381 -372 -677 -854 -800 -1303 -97 -354 -106 -822
-24 -1210 75 -351 164 -575 345 -865 201 -322 387 -515 695 -724 175 -119 295
-181 532 -276 150 -60 183 -77 195 -100 8 -15 13 -28 11 -29 -2 -1 -39 -31
-83 -67 -44 -36 -183 -149 -310 -251 -126 -101 -354 -285 -505 -407 -151 -122
-286 -228 -300 -236 -22 -11 -38 -9 -134 21 -157 49 -261 109 -496 282 -219
162 -356 290 -472 442 -244 320 -388 557 -544 898 -156 341 -281 740 -307 982
-45 405 -48 981 -8 1355 42 386 122 766 204 971 231 572 524 1044 871 1404
260 270 635 578 831 682 39 21 72 38 73 38 2 0 228 -224 502 -498z m14645 393
c61 -3 137 -8 170 -10 33 -2 105 -7 160 -10 97 -5 189 -11 325 -20 36 -2 115
-7 175 -10 61 -3 126 -8 145 -10 19 -2 98 -7 175 -10 77 -4 157 -11 178 -17
l37 -11 0 -216 c0 -119 -5 -589 -10 -1044 -8 -754 -6 -914 14 -934 7 -7 60 24
77 43 8 11 38 69 66 129 29 61 75 160 104 220 28 61 67 143 85 183 37 78 79
167 144 307 58 123 100 214 150 320 73 157 221 547 316 833 55 169 69 202 83
197 9 -4 90 -34 180 -66 115 -43 276 -117 550 -254 322 -162 677 -343 689
-351 2 -1 -42 -93 -98 -204 -76 -153 -437 -776 -607 -1048 -7 -12 -53 -91
-102 -175 -48 -83 -154 -266 -235 -405 -167 -288 -320 -596 -343 -692 l-16
-66 293 -539 c161 -297 305 -562 320 -590 15 -27 158 -291 318 -585 159 -294
301 -555 314 -580 33 -59 77 -140 221 -405 65 -121 128 -249 139 -284 11 -35
22 -69 24 -76 3 -8 -204 -126 -593 -338 -329 -180 -614 -333 -634 -341 l-37
-15 -82 142 c-46 78 -101 173 -122 211 -33 57 -113 226 -228 481 -12 28 -61
133 -107 235 -47 102 -132 291 -190 420 -125 280 -229 511 -303 675 -50 111
-200 410 -214 428 -14 18 -16 18 -58 -7 -75 -45 -84 -67 -102 -276 -14 -150
-18 -372 -23 -1177 -6 -897 -8 -993 -22 -994 -9 0 -23 -2 -31 -3 -8 -2 -49 -6
-90 -9 -41 -4 -111 -10 -155 -14 -85 -8 -795 -7 -1006 1 -69 3 -138 10 -154
16 l-28 11 7 747 c4 411 11 1157 17 1657 18 1485 16 2823 -4 3350 -15 404 -46
966 -62 1133 l-7 63 39 -5 c21 -3 88 -8 148 -11z m-6370 -20 c883 -6 1124 -11
1133 -19 4 -5 203 -1292 282 -1821 6 -44 16 -105 20 -135 5 -30 14 -84 19
-120 6 -36 18 -110 27 -165 16 -102 326 -1663 408 -2055 25 -118 79 -377 120
-575 41 -198 97 -468 125 -600 27 -132 53 -257 56 -277 8 -40 30 -67 44 -52 5
5 14 317 20 694 7 377 16 894 21 1150 5 256 14 704 20 995 6 292 15 755 20
1030 5 275 14 745 20 1045 5 300 12 623 16 719 l6 174 512 -7 c281 -3 606 -6
721 -7 218 0 684 -14 840 -24 100 -7 175 -32 292 -96 219 -121 820 -783 1061
-1171 230 -368 311 -626 311 -988 1 -436 -107 -778 -364 -1151 -88 -130 -262
-317 -458 -495 l-99 -89 31 -145 c80 -387 214 -836 392 -1317 10 -29 28 -77
38 -105 11 -29 36 -100 56 -158 35 -99 63 -172 265 -700 82 -212 83 -215 69
-254 -16 -44 8 -34 -269 -119 -80 -25 -210 -66 -290 -90 -80 -25 -203 -64
-275 -86 -179 -55 -236 -64 -308 -49 l-58 13 -43 95 c-24 52 -55 122 -71 155
-15 33 -47 105 -72 160 -25 55 -63 138 -84 183 -21 46 -39 85 -39 87 0 2 -16
39 -36 82 -20 43 -76 166 -124 273 -48 107 -102 227 -120 265 -18 39 -52 115
-77 170 -25 55 -62 136 -82 180 -20 44 -54 119 -75 166 l-39 85 -97 -21 c-54
-13 -112 -31 -130 -41 l-33 -19 7 -655 c3 -360 9 -751 13 -867 l6 -213 -641 0
c-622 0 -641 -1 -647 -19 -8 -27 -69 -30 -835 -36 -355 -3 -664 -8 -688 -12
-60 -8 -100 11 -106 51 -3 17 -10 144 -16 281 -16 357 -38 858 -46 1010 -7
137 -30 227 -62 244 -9 5 -62 14 -117 20 -55 6 -138 15 -185 20 -47 6 -213 12
-370 16 -157 3 -377 8 -490 11 l-205 5 -33 -34 c-31 -32 -34 -41 -57 -193 -32
-203 -63 -402 -75 -479 -5 -33 -21 -136 -35 -230 -14 -93 -30 -197 -35 -230
-5 -33 -19 -121 -30 -195 -12 -74 -23 -145 -26 -157 l-4 -23 -729 0 -728 0 18
88 c10 48 34 164 54 257 20 94 56 265 80 380 24 116 58 275 75 355 17 80 51
240 75 355 24 116 58 275 75 355 17 80 42 197 55 260 36 176 142 678 176 835
16 77 39 181 49 230 20 91 284 1342 365 1730 24 116 56 264 70 330 14 66 52
262 85 435 32 173 75 398 94 500 49 261 61 339 87 560 20 173 26 199 48 229
l25 33 90 -6 c50 -3 460 -8 911 -11z"/>
<path d="M4056 14925 c1 -20 5 -239 8 -488 4 -248 9 -533 11 -632 2 -99 7
-387 10 -640 3 -253 8 -523 10 -600 22 -724 27 -3607 7 -3725 -46 -266 -75
-360 -142 -454 -68 -95 -182 -227 -221 -256 -56 -40 -175 -88 -304 -122 -108
-28 -189 -40 -663 -95 l-234 -27 7 -55 c8 -75 13 -88 33 -97 34 -16 423 -16
597 0 230 20 335 48 511 136 194 96 283 166 364 285 68 101 123 206 168 320
65 165 71 207 81 545 14 456 14 5800 0 5854 -10 40 -15 45 -52 55 -39 10 -160
31 -182 31 -6 0 -10 -16 -9 -35z"/>
<path d="M30341 14886 l-23 -24 9 -504 c9 -489 9 -3563 0 -3643 -2 -22 -8
-141 -12 -265 -3 -124 -8 -252 -10 -285 -2 -33 -6 -159 -10 -280 -3 -121 -8
-263 -10 -315 -3 -52 -7 -165 -10 -250 -3 -85 -7 -209 -10 -275 -5 -129 -9
-229 -25 -685 -6 -162 -15 -398 -20 -524 -15 -345 -14 -399 11 -467 l22 -59
79 0 c55 0 84 4 93 14 10 10 16 51 20 137 10 237 33 919 53 1556 4 116 10 214
13 217 3 3 73 15 155 26 662 89 794 125 1102 304 275 159 442 280 592 428 234
232 355 384 493 619 139 238 254 640 332 1159 5 33 20 284 20 335 -1 128 -20
345 -46 520 -70 456 -267 979 -485 1284 -261 368 -725 708 -1155 850 -330 109
-574 149 -919 151 l-236 1 -23 -25z m631 -152 c292 -37 652 -154 813 -264 22
-15 58 -37 81 -48 22 -11 58 -36 80 -54 22 -18 60 -49 84 -68 88 -70 262 -236
289 -275 15 -22 84 -121 153 -220 69 -99 146 -218 171 -265 85 -160 190 -523
247 -855 17 -99 33 -187 35 -195 8 -31 20 -292 20 -440 -1 -252 -16 -439 -51
-620 -54 -286 -124 -494 -231 -689 -35 -63 -63 -115 -63 -117 0 -3 -68 -117
-130 -219 -171 -280 -478 -551 -807 -713 -216 -106 -385 -174 -518 -207 -177
-45 -259 -55 -452 -55 l-165 0 6 798 c3 438 9 1635 12 2660 l6 1862 148 0 c82
0 204 -7 272 -16z"/>
<path d="M31282 13903 c-12 -40 -19 -409 -42 -2213 -14 -1121 -15 -1362 -6
-1387 6 -20 14 -23 60 -23 46 0 65 8 162 63 60 34 145 89 189 122 108 80 387
361 459 463 129 183 207 383 261 662 78 411 63 846 -41 1175 -51 164 -119 313
-195 432 -71 112 -459 570 -507 600 -15 9 -56 35 -92 58 -98 63 -127 76 -184
82 l-52 5 -12 -39z"/>
<path d="M10877 14235 c-41 -11 -77 -22 -80 -25 -2 -3 -7 -210 -11 -460 -3
-250 -8 -561 -11 -690 -3 -129 -7 -419 -10 -645 -3 -225 -7 -531 -10 -680 -3
-148 -7 -448 -10 -665 -3 -217 -7 -498 -10 -625 -3 -126 -7 -435 -10 -685 -7
-606 -14 -1069 -21 -1326 l-5 -211 31 -27 c38 -31 98 -36 122 -8 16 17 20 141
45 1262 3 146 8 333 12 415 l6 150 35 17 c19 9 96 33 170 53 461 121 475 126
825 283 71 32 107 42 171 47 l81 7 26 -68 c54 -144 428 -1145 477 -1279 166
-448 292 -781 298 -786 4 -4 20 -9 35 -13 l29 -7 -5 48 c-10 104 -81 328 -564
1783 -146 440 -151 419 153 710 288 277 464 552 574 895 54 171 65 262 65 560
-1 220 -4 286 -18 355 -54 255 -199 564 -364 773 -91 115 -273 305 -373 389
-154 129 -416 261 -701 352 l-174 56 -275 26 c-151 14 -309 28 -351 32 -62 6
-90 4 -152 -13z m576 -159 c180 -28 513 -130 662 -204 199 -98 277 -155 440
-317 174 -173 245 -275 334 -479 137 -315 191 -582 178 -884 -15 -339 -49
-479 -173 -721 -136 -267 -240 -407 -443 -598 -151 -142 -290 -230 -651 -412
-223 -113 -455 -175 -701 -188 l-117 -6 -6 84 c-30 438 -31 948 -6 2144 5 242
14 694 21 1005 6 311 12 566 14 568 4 5 184 19 266 21 47 0 129 -6 182 -13z"/>
<path d="M11510 12271 l0 -1171 55 0 c71 0 123 21 219 89 144 102 394 369 475
507 19 33 54 88 77 124 84 130 101 190 110 380 8 182 -22 325 -104 494 -133
275 -335 524 -507 625 -125 74 -205 108 -267 116 l-58 7 0 -1171z"/>
<path d="M15399 14038 c-20 -38 -63 -212 -144 -573 -14 -60 -38 -168 -55 -240
-17 -71 -51 -220 -76 -330 -26 -110 -59 -254 -74 -320 -15 -66 -53 -230 -84
-365 -99 -431 -163 -712 -190 -825 -14 -60 -41 -180 -61 -265 -20 -85 -44
-193 -55 -240 -11 -47 -94 -409 -185 -805 -91 -396 -174 -758 -185 -805 -11
-47 -38 -161 -59 -255 -21 -93 -68 -299 -105 -456 -63 -274 -65 -288 -55 -347
l11 -62 58 0 c94 0 89 -12 210 550 45 209 252 1147 256 1162 4 15 25 16 212
12 114 -3 641 -9 1172 -15 531 -5 985 -13 1009 -18 24 -5 47 -14 51 -21 4 -6
17 -85 30 -173 54 -392 94 -678 110 -777 5 -36 32 -229 60 -430 41 -299 55
-374 75 -417 l25 -53 56 0 c76 0 84 10 84 108 0 70 -95 631 -210 1242 -11 58
-31 173 -45 255 -14 83 -64 362 -111 620 -46 259 -105 583 -129 720 -70 398
-153 861 -175 975 -20 109 -44 243 -61 345 -6 33 -44 247 -84 475 -92 511 -94
524 -106 580 -7 39 -100 562 -117 660 -3 19 -21 56 -41 83 l-35 47 -478 0
-478 0 -21 -42z m907 -223 c12 -49 49 -205 83 -345 34 -140 82 -365 107 -500
25 -135 69 -378 99 -540 30 -162 68 -371 85 -465 16 -93 35 -195 40 -225 6
-30 19 -107 30 -170 11 -63 24 -137 29 -165 5 -27 23 -129 40 -225 17 -96 51
-292 76 -435 26 -143 56 -316 68 -385 28 -161 26 -294 -4 -311 -28 -14 -2118
7 -2201 23 l-58 11 0 80 c0 66 19 163 111 561 135 589 166 724 184 801 15 63
220 957 281 1225 19 85 51 220 69 300 57 240 173 752 181 793 3 21 12 41 18
43 16 6 490 21 625 20 l115 -1 22 -90z"/>
<path d="M15896 12893 c-20 -30 -45 -130 -116 -448 -94 -427 -144 -652 -160
-720 -6 -22 -64 -284 -130 -583 -99 -452 -117 -547 -108 -567 10 -23 17 -25
82 -26 39 0 85 -2 101 -3 89 -9 555 -13 642 -6 157 12 183 18 195 46 15 33
-18 272 -93 674 -33 173 -70 374 -84 445 -32 172 -127 674 -171 902 -27 139
-43 197 -69 252 -20 41 -41 71 -50 71 -8 0 -26 -17 -39 -37z"/>
<path d="M19227 13928 c-38 -43 -87 -109 -109 -146 -22 -37 -50 -78 -62 -92
-78 -88 -189 -285 -314 -555 -85 -184 -119 -282 -127 -360 -3 -33 -8 -80 -11
-105 -6 -53 -6 -216 0 -245 2 -11 7 -51 11 -90 27 -253 200 -625 547 -1173
230 -362 289 -477 312 -603 35 -188 10 -592 -48 -789 -14 -47 -26 -92 -26
-100 0 -29 -127 -328 -185 -436 -86 -162 -209 -335 -373 -528 -81 -94 -153
-179 -161 -189 -12 -15 -11 -24 4 -62 18 -49 31 -59 85 -69 33 -6 39 -2 105
66 131 136 435 554 532 732 133 244 182 363 252 616 44 161 54 416 21 580 -38
197 -165 445 -613 1195 -64 108 -171 346 -203 454 -50 169 -66 282 -65 453 2
127 6 165 32 270 71 290 246 623 530 1004 58 78 68 97 71 138 l3 48 -70 32
-70 32 -68 -78z"/>
<path d="M6480 14293 c-14 -2 -40 -6 -58 -9 l-33 -5 6 -197 c2 -108 7 -348 10
-532 3 -184 7 -450 10 -590 5 -267 11 -616 20 -1130 3 -168 7 -415 10 -550 3
-135 7 -398 10 -585 3 -187 7 -437 10 -555 3 -118 7 -388 11 -600 6 -427 6
-426 75 -517 47 -63 114 -115 295 -231 266 -170 528 -307 679 -356 91 -30 212
-42 261 -26 21 7 284 177 585 377 l549 364 40 -12 c35 -11 40 -16 40 -43 0
-46 10 -335 15 -456 2 -58 4 -135 5 -172 l0 -68 73 0 74 0 11 38 c8 27 12 249
13 763 0 398 5 1688 11 2866 l10 2142 -22 36 c-19 30 -27 35 -49 31 -14 -3
-47 -8 -72 -12 l-46 -6 -6 -841 c-3 -463 -6 -1228 -7 -1700 0 -471 -3 -1022
-6 -1225 -3 -202 -5 -534 -4 -739 l0 -372 -102 -72 c-141 -99 -569 -402 -648
-459 -36 -26 -128 -91 -205 -145 l-139 -99 -81 -4 c-62 -3 -99 1 -164 18 -245
67 -739 335 -926 505 -42 38 -86 76 -96 83 -18 13 -19 39 -19 815 0 441 -5
1556 -10 2477 l-10 1675 -22 63 c-23 66 -24 67 -98 55z"/>
<path d="M21930 13932 c-88 -53 -113 -79 -239 -247 -140 -188 -139 -186 -274
-407 -72 -118 -109 -192 -147 -293 -66 -173 -83 -274 -83 -480 0 -207 24 -347
97 -562 64 -189 108 -274 384 -753 184 -319 257 -452 305 -560 43 -99 57 -509
23 -705 -42 -245 -208 -626 -380 -870 -128 -183 -195 -262 -399 -472 -74 -76
-97 -106 -93 -120 11 -31 41 -60 85 -83 60 -30 80 -19 177 103 45 56 171 213
281 348 197 243 285 368 309 438 7 20 33 90 59 156 178 457 209 618 169 883
-34 227 -114 404 -653 1457 -26 50 -72 146 -103 215 -54 118 -58 131 -68 240
-17 193 -8 408 21 525 32 124 134 341 245 520 38 61 152 213 254 338 102 125
186 234 188 242 3 14 -91 115 -106 115 -4 0 -27 -13 -52 -28z"/>
<path d="M23899 13948 c-18 -14 -21 -126 -35 -1333 -3 -286 -9 -792 -14 -1125
-5 -333 -9 -756 -10 -940 0 -184 -3 -398 -5 -475 -2 -77 -7 -414 -10 -750 -3
-335 -8 -732 -11 -881 l-6 -271 27 -21 c22 -18 41 -22 95 -22 42 0 71 5 78 13
13 15 20 339 33 1452 5 479 14 1223 19 1655 30 2469 31 2564 18 2614 -9 32
-22 56 -40 69 -33 25 -116 34 -139 15z"/>
<path d="M26918 13784 c-53 -29 -102 -72 -245 -217 -98 -100 -224 -239 -280
-308 -323 -402 -611 -931 -747 -1378 -51 -166 -69 -253 -111 -531 -7 -49 -20
-286 -20 -365 1 -148 16 -339 36 -450 11 -60 24 -132 29 -160 36 -204 111
-456 193 -645 69 -162 228 -444 320 -568 23 -32 87 -121 143 -199 162 -224
372 -479 492 -595 101 -97 117 -109 176 -127 37 -11 73 -18 81 -14 9 3 29 25
45 48 l30 43 -144 136 c-204 194 -423 433 -581 636 -75 96 -141 184 -147 195
-6 11 -45 74 -86 140 -193 306 -369 810 -417 1195 -17 134 -20 473 -5 635 24
265 91 518 220 835 92 226 233 511 334 674 91 148 160 229 475 556 320 332
328 340 351 394 l21 49 -28 29 c-35 36 -54 35 -135 -8z"/>
<path d="M42620 11046 l0 -2914 28 -6 c15 -3 55 -8 88 -11 l62 -7 6 254 c3
139 9 552 14 918 l8 665 284 365 c156 201 350 451 431 555 l148 191 51 10 51
11 38 -76 c21 -42 84 -170 139 -286 55 -115 139 -291 187 -390 48 -99 111
-229 140 -290 71 -149 160 -333 235 -490 34 -71 88 -184 120 -250 32 -66 95
-196 140 -290 45 -93 104 -215 130 -270 26 -55 85 -176 130 -270 45 -93 102
-212 126 -263 45 -94 64 -114 93 -94 9 7 38 23 65 38 l48 25 -7 47 c-5 33
-143 318 -464 957 -491 977 -799 1604 -836 1700 -13 33 -60 157 -105 277 l-81
216 112 179 c62 98 171 282 244 408 129 226 180 321 385 720 57 110 129 250
160 310 31 61 107 207 169 326 l111 217 -12 71 -12 71 -71 0 -70 0 -144 -313
c-115 -250 -327 -669 -496 -982 -114 -211 -100 -187 -353 -595 -67 -108 -158
-255 -245 -395 -129 -207 -560 -832 -642 -930 -50 -60 -114 -139 -143 -173
-29 -35 -52 -62 -52 -60 -6 45 -12 401 -20 1213 -5 550 -12 1146 -15 1325 -3
179 -8 517 -11 752 l-7 427 -46 6 c-25 3 -61 8 -78 11 l-33 5 0 -2915z"/>
<path d="M38743 14028 l-103 -20 -1 -242 c-1 -132 -3 -279 -4 -326 -2 -47 -6
-323 -9 -615 -4 -291 -11 -793 -16 -1115 -5 -322 -14 -907 -20 -1300 -6 -393
-15 -980 -20 -1305 -5 -324 -11 -707 -12 -850 l-2 -260 79 -3 80 -3 13 33 c8
22 16 148 22 378 21 749 30 1121 31 1260 1 80 4 156 8 169 6 23 24 29 251 86
409 103 546 147 771 246 40 17 110 42 156 54 l84 23 10 -26 c12 -31 312 -830
605 -1610 112 -299 218 -568 236 -598 30 -50 36 -54 70 -54 l37 0 -34 103
c-19 56 -64 197 -100 312 -37 116 -102 320 -145 455 -43 135 -108 340 -145
455 -37 116 -86 271 -110 345 -24 74 -76 236 -115 360 -39 124 -78 245 -86
270 -12 36 -12 55 -2 104 l11 60 216 216 c179 178 231 236 302 340 93 135 199
328 249 453 75 188 113 423 113 692 0 168 -4 204 -27 310 -63 283 -182 573
-314 763 -51 73 -149 192 -191 232 -284 267 -541 425 -831 510 -41 12 -95 28
-120 37 -25 8 -97 23 -160 34 -312 53 -597 62 -777 27z m635 -143 c249 -38
526 -142 712 -268 242 -164 461 -380 568 -561 165 -277 229 -445 282 -740 27
-147 -6 -514 -64 -729 -67 -246 -246 -577 -411 -762 -305 -342 -450 -440 -900
-609 -284 -107 -502 -156 -692 -156 -54 0 -64 3 -74 22 -11 20 -8 587 6 1073
3 94 7 307 10 475 10 615 27 1574 34 1910 l6 345 85 6 c170 11 341 9 438 -6z"/>
<path d="M39380 13221 c-7 -13 -10 -397 -10 -1174 l0 -1155 29 -12 c29 -11 36
-7 218 116 234 159 317 240 430 419 55 86 125 247 180 415 64 194 75 388 31
565 -58 237 -316 560 -562 703 -174 102 -195 113 -244 127 -60 19 -59 19 -72
-4z"/>
<path d="M35241 13826 c-22 -23 -43 -106 -187 -736 -19 -85 -50 -220 -69 -300
-32 -133 -98 -417 -196 -845 -22 -93 -46 -198 -54 -232 -28 -118 -44 -188 -85
-363 -22 -96 -79 -341 -126 -545 -48 -203 -97 -415 -109 -470 -13 -55 -32
-140 -44 -190 -11 -49 -45 -196 -75 -325 -30 -129 -79 -343 -110 -475 -154
-659 -248 -1067 -263 -1132 -12 -55 -14 -87 -7 -135 l9 -63 50 -11 c48 -10 52
-10 90 20 22 17 43 34 46 39 6 8 12 36 73 332 71 344 148 717 206 996 33 157
60 289 60 292 0 4 22 18 49 31 l49 25 978 -9 c539 -5 1073 -11 1188 -14 l209
-4 34 -34 c33 -33 35 -40 53 -169 11 -74 51 -361 90 -639 128 -914 139 -983
151 -990 23 -15 102 -20 116 -8 21 17 14 99 -30 348 -20 113 -52 293 -71 400
-19 107 -60 330 -91 495 -31 165 -71 383 -90 485 -19 102 -48 257 -64 345 -16
88 -48 259 -71 380 -41 221 -125 671 -181 970 -83 442 -196 1051 -218 1170
-11 61 -36 193 -55 295 -19 102 -55 298 -81 435 -25 138 -54 293 -65 345 -10
52 -21 115 -25 140 -4 25 -23 73 -42 108 l-35 62 -492 0 -493 0 -22 -24z m851
-127 c37 -7 59 -17 62 -28 5 -15 26 -108 131 -576 23 -104 77 -343 120 -530
42 -187 97 -428 121 -535 41 -183 169 -928 249 -1445 19 -126 50 -326 68 -444
l34 -214 -1026 7 c-564 3 -1088 9 -1165 12 l-138 6 5 32 c3 17 24 110 47 206
22 96 65 283 95 415 196 859 252 1100 305 1330 27 116 85 370 130 565 44 195
87 382 95 415 22 95 51 219 118 515 l63 275 170 6 c219 8 444 3 516 -12z"/>
<path d="M35720 12633 c-23 -87 -55 -203 -71 -258 -15 -55 -41 -156 -58 -225
-98 -412 -126 -538 -180 -815 -28 -143 -73 -376 -101 -518 -51 -266 -61 -376
-36 -409 12 -17 47 -18 480 -18 398 0 471 2 496 15 33 17 45 50 37 98 -19 104
-29 157 -52 287 -14 80 -30 169 -35 198 -6 28 -14 76 -20 105 -137 757 -218
1187 -235 1242 -14 45 -87 307 -115 413 -9 37 -14 42 -39 42 -27 0 -28 -2 -71
-157z"/>
</g>
</svg>
